<svg xmlns="http://www.w3.org/2000/svg" style="display: none;">
  <symbol id="icon-egx-core" viewBox="0 0 24 24" fill="none" stroke="currentColor" stroke-width="1.8" stroke-linecap="round" stroke-linejoin="round">
    <path d="M12 2l8 4.5v9L12 20 4 15.5v-9L12 2z"/>
    <path d="M12 20v-8.5"/>
    <path d="M4 6.5l8 4.5 8-4.5"/>
  </symbol>

  <symbol id="icon-egx-marketplace" viewBox="0 0 24 24" fill="none" stroke="currentColor" stroke-width="1.8" stroke-linecap="round" stroke-linejoin="round">
    <circle cx="9" cy="20" r="1.5"/>
    <circle cx="18" cy="20" r="1.5"/>
    <path d="M3 4h2l2.2 10.5a2 2 0 0 0 2 1.5h7.8a2 2 0 0 0 2-1.6L22 7H7"/>
  </symbol>

  <symbol id="icon-egx-finance" viewBox="0 0 24 24" fill="none" stroke="currentColor" stroke-width="1.8" stroke-linecap="round" stroke-linejoin="round">
    <path d="M4 19h16"/>
    <path d="M6 16V9"/>
    <path d="M10 16V5"/>
    <path d="M14 16v-3"/>
    <path d="M18 16V7"/>
  </symbol>

  <symbol id="icon-egx-admin" viewBox="0 0 24 24" fill="none" stroke="currentColor" stroke-width="1.8" stroke-linecap="round" stroke-linejoin="round">
    <circle cx="12" cy="12" r="3"/>
    <path d="M19.4 15a1 1 0 0 0 .2 1.1l.1.1a1.8 1.8 0 1 1-2.5 2.5l-.1-.1a1 1 0 0 0-1.1-.2 1 1 0 0 0-.6.9V20a1.8 1.8 0 1 1-3.6 0v-.2a1 1 0 0 0-.6-.9 1 1 0 0 0-1.1.2l-.1.1a1.8 1.8 0 1 1-2.5-2.5l.1-.1a1 1 0 0 0 .2-1.1 1 1 0 0 0-.9-.6H4a1.8 1.8 0 1 1 0-3.6h.2a1 1 0 0 0 .9-.6 1 1 0 0 0-.2-1.1l-.1-.1a1.8 1.8 0 1 1 2.5-2.5l.1.1a1 1 0 0 0 1.1.2 1 1 0 0 0 .6-.9V4a1.8 1.8 0 1 1 3.6 0v.2a1 1 0 0 0 .6.9 1 1 0 0 0 1.1-.2l.1-.1a1.8 1.8 0 1 1 2.5 2.5l-.1.1a1 1 0 0 0-.2 1.1 1 1 0 0 0 .9.6H20a1.8 1.8 0 1 1 0 3.6h-.2a1 1 0 0 0-.9.6z"/>
  </symbol>
</svg>
